<svg width="16" height="16" viewBox="0 0 16 16" fill="none" xmlns="http://www.w3.org/2000/svg">
<path d="M3.90065 11.4002C4.46732 10.9668 5.10065 10.6252 5.80065 10.3752C6.50065 10.1252 7.23398 10.0002 8.00065 10.0002C8.76732 10.0002 9.50065 10.1252 10.2007 10.3752C10.9007 10.6252 11.534 10.9668 12.1007 11.4002C12.4895 10.9446 12.7923 10.4279 13.009 9.85016C13.2257 9.27239 13.334 8.65572 13.334 8.00016C13.334 6.52239 12.8145 5.26405 11.7757 4.22516C10.7368 3.18627 9.47843 2.66683 8.00065 2.66683C6.52287 2.66683 5.26454 3.18627 4.22565 4.22516C3.18676 5.26405 2.66732 6.52239 2.66732 8.00016C2.66732 8.65572 2.77565 9.27239 2.99232 9.85016C3.20898 10.4279 3.51176 10.9446 3.90065 11.4002ZM8.00065 8.66683C7.3451 8.66683 6.79232 8.44183 6.34232 7.99183C5.89232 7.54183 5.66732 6.98905 5.66732 6.3335C5.66732 5.67794 5.89232 5.12516 6.34232 4.67516C6.79232 4.22516 7.3451 4.00016 8.00065 4.00016C8.65621 4.00016 9.20898 4.22516 9.65899 4.67516C10.109 5.12516 10.334 5.67794 10.334 6.3335C10.334 6.98905 10.109 7.54183 9.65899 7.99183C9.20898 8.44183 8.65621 8.66683 8.00065 8.66683ZM8.00065 14.6668C7.07843 14.6668 6.21176 14.4918 5.40065 14.1418C4.58954 13.7918 3.88398 13.3168 3.28398 12.7168C2.68398 12.1168 2.20898 11.4113 1.85898 10.6002C1.50898 9.78905 1.33398 8.92239 1.33398 8.00016C1.33398 7.07794 1.50898 6.21127 1.85898 5.40016C2.20898 4.58905 2.68398 3.8835 3.28398 3.2835C3.88398 2.6835 4.58954 2.2085 5.40065 1.8585C6.21176 1.5085 7.07843 1.3335 8.00065 1.3335C8.92287 1.3335 9.78954 1.5085 10.6007 1.8585C11.4118 2.2085 12.1173 2.6835 12.7173 3.2835C13.3173 3.8835 13.7923 4.58905 14.1423 5.40016C14.4923 6.21127 14.6673 7.07794 14.6673 8.00016C14.6673 8.92239 14.4923 9.78905 14.1423 10.6002C13.7923 11.4113 13.3173 12.1168 12.7173 12.7168C12.1173 13.3168 11.4118 13.7918 10.6007 14.1418C9.78954 14.4918 8.92287 14.6668 8.00065 14.6668ZM8.00065 13.3335C8.58954 13.3335 9.1451 13.2474 9.66732 13.0752C10.1895 12.9029 10.6673 12.6557 11.1007 12.3335C10.6673 12.0113 10.1895 11.7641 9.66732 11.5918C9.1451 11.4196 8.58954 11.3335 8.00065 11.3335C7.41176 11.3335 6.85621 11.4196 6.33398 11.5918C5.81176 11.7641 5.33398 12.0113 4.90065 12.3335C5.33398 12.6557 5.81176 12.9029 6.33398 13.0752C6.85621 13.2474 7.41176 13.3335 8.00065 13.3335ZM8.00065 7.3335C8.28954 7.3335 8.52843 7.23905 8.71732 7.05016C8.90621 6.86127 9.00065 6.62239 9.00065 6.3335C9.00065 6.04461 8.90621 5.80572 8.71732 5.61683C8.52843 5.42794 8.28954 5.3335 8.00065 5.3335C7.71176 5.3335 7.47287 5.42794 7.28398 5.61683C7.0951 5.80572 7.00065 6.04461 7.00065 6.3335C7.00065 6.62239 7.0951 6.86127 7.28398 7.05016C7.47287 7.23905 7.71176 7.3335 8.00065 7.3335Z" fill="#1E1E1E"/>
</svg>
